<?xml version="1.0" encoding="utf-8"?>
<!-- Generator: Adobe Illustrator 24.2.3, SVG Export Plug-In . SVG Version: 6.00 Build 0)  -->
<svg version="1.1" id="Ebene_1" xmlns="http://www.w3.org/2000/svg" xmlns:xlink="http://www.w3.org/1999/xlink" x="0px" y="0px"
	 viewBox="0 0 32 32" style="enable-background:new 0 0 32 32;" xml:space="preserve">
<style type="text/css">
	.st0{fill-rule:evenodd;clip-rule:evenodd;fill:#282E34;}
	.st1{fill-rule:evenodd;clip-rule:evenodd;fill:#FFFFFF;}
</style>
<g>
	<path class="st0" d="M0,0h32v32H0V0z"/>
</g>
<path class="st1" d="M21.8,17.2l2.3,1.2l2.3,1.2v2.3L18.2,26c-0.7,0.3-1.4,0.5-2.2,0.5c-0.8,0-1.5-0.2-2.2-0.5l0,0l-8.3-4.1v-2.3
	l8.3,4.1c0.7,0.3,1.4,0.5,2.2,0.5c0.8,0,1.5-0.2,2.2-0.5l0,0l5.9-3l-2.3-1.2l-3.6,1.8c-0.7,0.3-1.4,0.5-2.2,0.5
	c-0.8,0-1.5-0.2-2.2-0.5l0,0l-5.9-3l2.3-1.2l3.6,1.8c0.7,0.3,1.4,0.5,2.2,0.5c0.8,0,1.5-0.2,2.2-0.5l0,0L21.8,17.2L21.8,17.2z
	 M16,14.8c0.8,0,1.5,0.2,2.2,0.5l0,0l1.3,0.6l0,0l-1.3,0.7c-0.7,0.3-1.4,0.5-2.2,0.5c-0.8,0-1.5-0.2-2.2-0.5l0,0L12.5,16l1.3-0.7
	C14.5,15,15.3,14.8,16,14.8L16,14.8z M16,5.5c0.8,0,1.5,0.2,2.2,0.5l0,0l8.3,4.1v2.3l-8.2-4.1C17.5,8,16.8,7.8,16,7.8
	c-0.8,0-1.5,0.2-2.2,0.5l0,0l-6,3l2.3,1.2l3.6-1.8c0.7-0.3,1.4-0.5,2.2-0.5c0.8,0,1.5,0.2,2.2,0.5l0,0l5.9,3l-2.3,1.2L18.2,13
	c-0.7-0.3-1.4-0.5-2.2-0.5c-0.8,0-1.5,0.2-2.2,0.5l0,0l-3.6,1.8l-4.7-2.3v-2.3L13.8,6C14.5,5.7,15.2,5.5,16,5.5L16,5.5z"/>
</svg>
